<svg width="56" height="56" viewBox="0 0 56 56" fill="none" xmlns="http://www.w3.org/2000/svg">
<ellipse cx="29" cy="17.75" rx="15.75" ry="6.75" stroke="#FFA000" stroke-width="4.5" stroke-linecap="round"/>
<path d="M13.25 17.75L17.7415 42.4531C17.747 42.4836 17.7618 42.5118 17.7837 42.5337V42.5337C23.9783 48.7283 34.0217 48.7283 40.2163 42.5337V42.5337C40.2382 42.5118 40.253 42.4836 40.2585 42.4531L44.75 17.75" stroke="#FFA000" stroke-width="4.5" stroke-linecap="round"/>
<ellipse cx="27" cy="15.75" rx="15.75" ry="6.75" stroke="#FFD54F" stroke-width="4.5" stroke-linecap="round"/>
<path d="M11.25 15.75L15.7415 40.4531C15.747 40.4836 15.7618 40.5118 15.7837 40.5337V40.5337C21.9783 46.7283 32.0217 46.7283 38.2163 40.5337V40.5337C38.2382 40.5118 38.253 40.4836 38.2585 40.4531L42.75 15.75" stroke="#FFD54F" stroke-width="4.5" stroke-linecap="round"/>
</svg>
