<svg width="56" height="56" viewBox="0 0 56 56" fill="none" xmlns="http://www.w3.org/2000/svg">
<path d="M8.75002 16.625V16.625C8.75002 13.5184 11.2684 11 14.375 11L45.3929 11C45.8417 11 46.0661 11 46.2466 11.0631C46.5697 11.1762 46.8238 11.4303 46.9369 11.7534C47 11.9339 47 12.1583 47 12.6071V12.6071C47 15.3003 47 16.6469 46.6212 17.7294C45.9428 19.6683 44.4183 21.1928 42.4794 21.8712C41.3969 22.25 40.0503 22.25 37.3571 22.25H35.75M8.75002 16.625V16.625C8.75002 19.7316 11.2684 22.25 14.375 22.25L44.75 22.25C46.8713 22.25 47.932 22.25 48.591 22.909C49.25 23.568 49.25 24.6287 49.25 26.75L49.25 31.25M8.75002 16.625L8.75002 40.25C8.75002 44.4926 8.75002 46.614 10.068 47.932C11.3861 49.25 13.5074 49.25 17.75 49.25L44.75 49.25C46.8713 49.25 47.932 49.25 48.591 48.591C49.25 47.932 49.25 46.8713 49.25 44.75L49.25 40.25M49.25 40.25H40.25C38.1287 40.25 37.068 40.25 36.409 39.591C35.75 38.932 35.75 37.8713 35.75 35.75V35.75C35.75 33.6287 35.75 32.568 36.409 31.909C37.068 31.25 38.1287 31.25 40.25 31.25H49.25M49.25 40.25L49.25 31.25" stroke="#FFA000" stroke-width="4.5"/>
<path d="M6.75002 14.625V14.625C6.75002 11.5184 9.26842 9 12.375 9L43.3929 9C43.8417 9 44.0661 9 44.2466 9.06313C44.5697 9.17621 44.8238 9.43028 44.9369 9.75344C45 9.93385 45 10.1583 45 10.6071V10.6071C45 13.3003 45 14.6469 44.6212 15.7294C43.9428 17.6683 42.4183 19.1928 40.4794 19.8712C39.3969 20.25 38.0503 20.25 35.3571 20.25H33.75M6.75002 14.625V14.625C6.75002 17.7316 9.26841 20.25 12.375 20.25L42.75 20.25C44.8713 20.25 45.932 20.25 46.591 20.909C47.25 21.568 47.25 22.6287 47.25 24.75L47.25 29.25M6.75002 14.625L6.75002 38.25C6.75002 42.4926 6.75002 44.614 8.06804 45.932C9.38606 47.25 11.5074 47.25 15.75 47.25L42.75 47.25C44.8713 47.25 45.932 47.25 46.591 46.591C47.25 45.932 47.25 44.8713 47.25 42.75L47.25 38.25M47.25 38.25H38.25C36.1287 38.25 35.068 38.25 34.409 37.591C33.75 36.932 33.75 35.8713 33.75 33.75V33.75C33.75 31.6287 33.75 30.568 34.409 29.909C35.068 29.25 36.1287 29.25 38.25 29.25H47.25M47.25 38.25L47.25 29.25" stroke="#FFD54F" stroke-width="4.5"/>
</svg>
